# This file uses centimeters as units for non-parametric coordinates.

mtllib scytheTexture.mtl
g default
v -0.051292 1.213220 -0.070643
v -0.120998 1.260679 -0.088091
v -0.176897 1.298737 -0.039204
v -0.176897 1.298737 0.039204
v -0.120998 1.260679 0.088091
v -0.051292 1.213220 0.070643
v -0.020270 1.192100 0.000000
v -0.102663 1.248196 0.000000
v 0.091792 2.402458 0.051704
v 0.055812 2.402458 0.023010
v 0.055812 2.402458 -0.023010
v 0.091792 2.402458 -0.051704
v 0.136659 2.402458 -0.041463
v 0.156627 2.402458 -0.000000
v 0.136659 2.402458 0.041463
v -0.008661 3.704838 0.048621
v -0.042496 3.704838 0.021638
v -0.042496 3.704838 -0.021638
v -0.008661 3.704838 -0.048621
v 0.033531 3.704838 -0.038991
v 0.052308 3.704838 0.000000
v 0.033531 3.704838 0.038991
v -0.183952 4.754469 0.043512
v -0.217842 4.737748 0.019365
v -0.217842 4.737748 -0.019365
v -0.183952 4.754469 -0.043512
v -0.141692 4.775320 -0.034894
v -0.122885 4.784600 0.000000
v -0.141692 4.775320 0.034894
v -0.161187 5.323595 0.033284
v -0.203384 5.324015 0.042005
v -0.233662 5.330551 0.018826
v -0.233662 5.330551 -0.018826
v -0.203384 5.324015 -0.042005
v -0.161187 5.323595 -0.033284
v -0.140069 5.327482 0.000000
v -0.135317 5.494904 0.031885
v -0.176328 5.501192 0.040746
v -0.118786 5.495024 -0.002605
v -0.135317 5.494904 -0.037095
v -0.176328 5.501192 -0.045956
v -0.206735 5.506776 -0.021988
v -0.206752 5.506550 0.016778
v -0.163490 5.499354 -0.002360
vt 0.287598 0.017986
vt 0.311050 0.026479
vt 0.327833 0.362626
vt 0.157767 0.518916
vt 0.236843 0.291460
vt 0.340961 0.360321
vt 0.259553 0.291312
vt 0.354291 0.360233
vt 0.379828 0.026028
vt 0.367448 0.362367
vt 0.403166 0.017229
vt 0.380447 0.365320
vt 0.426183 0.014580
vt 0.144442 0.518584
vt 0.264548 0.015639
vt 0.393617 0.367375
vt 0.197703 0.520552
vt 0.211008 0.519742
vt 0.210707 0.898087
vt 0.198195 0.898849
vt 0.184373 0.520583
vt 0.185660 0.898878
vt 0.171065 0.519836
vt 0.173145 0.898175
vt 0.160640 0.897311
vt 0.237625 0.518365
vt 0.148109 0.896998
vt 0.224301 0.518760
vt 0.223207 0.897163
vt 0.235737 0.896792
vt 0.314874 0.365749
vt 0.301732 0.367977
vt 0.437381 0.979522
vt 0.424552 0.974907
vt 0.423245 0.801662
vt 0.186474 0.976271
vt 0.449154 0.979337
vt 0.197919 0.976093
vt 0.461834 0.974330
vt 0.457785 0.801128
vt 0.475006 0.968117
vt 0.470883 0.801380
vt 0.399088 0.966531
vt 0.482856 0.800099
vt 0.411194 0.969103
vt 0.410161 0.802319
vt 0.398154 0.801409
vt 0.487027 0.965171
vt 0.316019 0.650921
vt 0.329036 0.649009
vt 0.333519 0.972496
vt 0.302864 0.651124
vt 0.289794 0.649614
vt 0.295295 0.973086
vt 0.276773 0.647737
vt 0.281407 0.977472
vt 0.355104 0.645633
vt 0.269206 0.979545
vt 0.341994 0.646730
vt 0.347535 0.976451
vt 0.359795 0.978147
vt 0.263634 0.647044
vt 0.320242 0.969400
vt 0.308470 0.969579
vt 0.174733 0.976970
vt 0.161750 0.975225
vt 0.276048 0.596611
vt 0.273636 0.609281
vt 0.281126 0.618512
vt 0.292909 0.618263
vt 0.209671 0.976571
vt 0.299996 0.608714
vt 0.222662 0.974883
vt 0.297041 0.596159
vt 0.149902 0.973076
vt 0.286437 0.591390
vt 0.286767 0.605060
vt 0.174382 0.922482
vt 0.209937 0.922070
vt 0.222834 0.922200
vt 0.234450 0.921668
vt 0.149886 0.921726
vt 0.161484 0.922554
vt 0.234558 0.973017
vt 0.434758 0.799256
vt 0.446203 0.799081
vt 0.186263 0.922139
vt 0.198046 0.921890
vt 0.222565 0.273341
vt 0.227470 0.250598
vt 0.248040 0.267201
vt 0.273593 0.273007
vt 0.268391 0.250330
vt 0.247864 0.240358
vt 0.334132 0.033646
vt 0.356842 0.033498
vn 0.230112 -0.012189 -0.973088
vn 0.230112 -0.012189 -0.973088
vn 0.226893 0.001283 -0.973919
vn 0.226664 0.002235 -0.973970
vn -0.604858 0.138365 -0.784221
vn -0.604858 0.138365 -0.784221
vn -0.615302 0.058116 -0.786146
vn -0.615765 0.053632 -0.786102
vn -0.978488 0.206304 0.000000
vn -0.978488 0.206304 0.000000
vn -0.996796 0.079989 0.000000
vn -0.996796 0.079989 0.000000
vn -0.604858 0.138365 0.784221
vn -0.604858 0.138365 0.784221
vn -0.615766 0.053632 0.786102
vn -0.615302 0.058116 0.786146
vn 0.230112 -0.012189 0.973088
vn 0.230112 -0.012189 0.973088
vn 0.226664 0.002235 0.973970
vn 0.226893 0.001283 0.973919
vn 0.892982 -0.130536 0.430747
vn 0.892982 -0.130536 0.430747
vn 0.900034 -0.041574 0.433832
vn 0.899927 -0.044246 0.433790
vn 0.892982 -0.130536 -0.430747
vn 0.892982 -0.130536 -0.430747
vn 0.899927 -0.044246 -0.433790
vn 0.900034 -0.041574 -0.433832
vn -0.562785 -0.826603 -0.000000
vn -0.562786 -0.826603 0.000003
vn -0.562785 -0.826603 -0.000000
vn -0.562784 -0.826604 -0.000001
vn -0.562784 -0.826604 0.000001
vn -0.562785 -0.826603 -0.000000
vn -0.562786 -0.826603 -0.000003
vn -0.562784 -0.826604 0.000000
vn -0.607562 -0.066393 0.791493
vn -0.605260 -0.069384 0.792998
vn -0.993434 -0.114408 0.000000
vn -0.993434 -0.114408 0.000000
vn -0.605260 -0.069384 -0.792998
vn -0.607562 -0.066393 -0.791493
vn 0.212616 0.028324 -0.976725
vn 0.214115 0.026980 -0.976436
vn 0.888509 0.104447 -0.446813
vn 0.889261 0.102165 -0.445843
vn 0.889262 0.102165 0.445843
vn 0.888510 0.104447 0.446813
vn 0.214115 0.026980 0.976436
vn 0.212616 0.028324 0.976725
vn -0.588124 -0.062039 0.806388
vn -0.586802 -0.075539 0.806200
vn -0.992879 -0.119130 0.000000
vn -0.992879 -0.119130 0.000000
vn -0.586801 -0.075539 -0.806200
vn -0.588124 -0.062039 -0.806388
vn 0.201380 0.030941 -0.979024
vn 0.200720 0.025288 -0.979322
vn 0.872027 0.112623 -0.476324
vn 0.870765 0.100983 -0.481218
vn 0.870765 0.100983 0.481217
vn 0.872027 0.112623 0.476324
vn 0.200720 0.025288 0.979322
vn 0.201380 0.030941 0.979024
vn -0.593748 0.007008 0.804621
vn -0.594235 0.013536 0.804178
vn -0.999899 0.014197 0.000053
vn -0.999891 0.014786 0.000054
vn -0.594984 0.007407 -0.803704
vn -0.594360 0.002535 -0.804195
vn 0.199726 -0.004340 -0.979842
vn 0.199804 -0.005628 -0.979820
vn 0.863994 -0.003420 -0.503491
vn 0.864868 -0.012088 -0.501854
vn 0.864844 -0.008630 0.501966
vn 0.863865 0.000096 0.503723
vn 0.200360 0.001452 0.979721
vn 0.200227 0.002188 0.979747
vn 0.204861 -0.023649 0.978505
vn 0.204861 -0.023649 0.978505
vn -0.598245 0.098861 0.795192
vn -0.598244 0.098861 0.795192
vn -0.988519 0.151099 0.000232
vn -0.988519 0.151099 0.000232
vn -0.602225 0.075998 -0.794701
vn -0.602225 0.075998 -0.794701
vn 0.202403 -0.052520 -0.977893
vn 0.202403 -0.052520 -0.977893
vn 0.869989 -0.130069 -0.475607
vn 0.869989 -0.130069 -0.475607
vn 0.871196 -0.115593 0.477132
vn 0.871196 -0.115593 0.477133
vn 0.166991 0.985935 0.006780
vn 0.144509 0.989503 0.000597
vn 0.169822 0.985474 -0.001509
vn 0.163286 0.986558 -0.006485
vn 0.124950 0.991829 -0.025726
vn 0.160229 0.987064 0.005612
vn 0.124945 0.991821 0.026097
vn 0.096409 0.995342 -0.000240
s 1
g polySurface2 pCube2
usemtl lambert2SG
f 1/1/1 2/2/2 12/3/3 13/31/4
s 2
f 2/2/5 3/95/6 11/6/7 12/3/8
s 3
f 3/95/9 4/96/10 10/8/11 11/6/12
s 4
f 4/96/13 5/9/14 9/10/15 10/8/16
s 5
f 5/9/17 6/11/18 15/12/19 9/10/20
s 6
f 6/11/21 7/13/22 14/16/23 15/12/24
s 7
f 7/15/25 1/1/26 13/31/27 14/32/28
s 8
f 2/89/29 1/90/30 8/91/31
f 3/5/32 2/89/29 8/91/31
f 4/7/33 3/5/32 8/91/31
f 5/92/34 4/7/33 8/91/31
f 6/93/35 5/92/34 8/91/31
f 7/94/36 6/93/35 8/91/31
f 1/90/30 7/94/36 8/91/31
s 4
f 10/17/16 9/18/15 16/19/37 17/20/38
s 3
f 11/21/12 10/17/11 17/20/39 18/22/40
s 2
f 12/23/8 11/21/7 18/22/41 19/24/42
s 1
f 13/4/4 12/23/3 19/24/43 20/25/44
s 7
f 14/14/28 13/4/27 20/25/45 21/27/46
s 6
f 15/28/24 14/26/23 21/30/47 22/29/48
s 5
f 9/18/20 15/28/19 22/29/49 16/19/50
s 4
f 17/49/38 16/50/37 23/51/51 24/63/52
s 3
f 18/52/40 17/49/39 24/63/53 25/64/54
s 2
f 19/53/42 18/52/41 25/64/55 26/54/56
s 1
f 20/55/44 19/53/43 26/54/57 27/56/58
s 7
f 21/62/46 20/55/45 27/56/59 28/58/60
s 6
f 22/59/48 21/57/47 28/61/61 29/60/62
s 5
f 16/50/50 22/59/49 29/60/63 23/51/64
s 4
f 24/33/52 23/34/51 31/35/65 32/85/66
s 3
f 25/37/54 24/33/53 32/85/67 33/86/68
s 2
f 26/39/56 25/37/55 33/86/69 34/40/70
s 1
f 27/41/58 26/39/57 34/40/71 35/42/72
s 7
f 28/48/60 27/41/59 35/42/73 36/44/74
s 6
f 29/45/62 28/43/61 36/47/75 30/46/76
s 5
f 23/34/64 29/45/63 30/46/77 31/35/78
f 31/65/78 30/66/77 37/83/79 38/78/80
s 4
f 32/36/66 31/65/65 38/78/81 43/87/82
s 3
f 33/38/68 32/36/67 43/87/83 42/88/84
s 2
f 34/71/70 33/38/69 42/88/85 41/79/86
s 1
f 35/73/72 34/71/71 41/79/87 40/80/88
s 7
f 36/84/74 35/73/73 40/80/89 39/81/90
s 6
f 30/66/76 36/75/75 39/82/91 37/83/92
s 9
f 43/69/93 44/77/94 42/70/95
f 42/70/95 44/77/94 41/72/96
f 44/77/94 40/74/97 41/72/96
f 38/68/98 44/77/94 43/69/93
f 38/68/98 37/67/99 44/77/94
f 44/77/94 37/67/99 39/76/100
f 44/77/94 39/76/100 40/74/97
g default
v -0.059323 5.909367 -0.025295
v -0.084018 5.917545 -0.031014
v -0.103821 5.924103 -0.014988
v -0.103821 5.924103 0.010716
v -0.084018 5.917545 0.026743
v -0.059323 5.909367 0.021023
v -0.048333 5.905727 -0.002136
v -0.076138 5.914935 -0.002136
v -0.063493 5.859654 -0.033676
v -0.047302 5.856298 0.000154
v -0.062985 5.860130 0.034173
v -0.098734 5.868264 0.042762
v -0.127628 5.874575 0.019456
v -0.127909 5.874311 -0.018197
v -0.099367 5.867670 -0.041843
v -0.091462 5.866075 0.000099
vt 0.391382 0.725386
vt 0.390084 0.773107
vt 0.398005 0.778094
vt 0.396958 0.768480
vt 0.404634 0.771052
vt 0.407333 0.778886
vt 0.403021 0.786083
vt 0.394947 0.787222
vt 0.446644 0.742767
vt 0.400461 0.734263
vt 0.432168 0.748550
vt 0.441500 0.732080
vt 0.428344 0.741348
vt 0.433904 0.722973
vt 0.422392 0.735436
vt 0.424236 0.716105
vt 0.415287 0.731173
vt 0.413256 0.711620
vt 0.407763 0.728184
vt 0.401599 0.709438
vt 0.399739 0.726120
vt 0.409259 0.742216
vt 0.395724 0.747473
vt 0.388536 0.736163
vt 0.386817 0.757459
vt 0.398317 0.760818
vt 0.382464 0.746486
vt 0.408305 0.754034
vt 0.383317 0.726591
vt 0.389189 0.781448
vt 0.389739 0.709537
vt 0.378116 0.711895
vn 0.314381 0.949297 0.000043
vn 0.314378 0.949298 0.000030
vn 0.314378 0.949298 0.000000
vn 0.314376 0.949299 0.000010
vn 0.314376 0.949299 -0.000019
vn 0.314378 0.949298 -0.000041
vn 0.314381 0.949297 -0.000032
vn 0.314379 0.949298 0.000011
vn 0.902487 -0.002114 -0.430711
vn 0.902487 -0.002114 -0.430711
vn 0.902487 -0.002114 -0.430711
vn 0.902487 -0.002114 -0.430711
vn 0.907519 0.041207 0.417984
vn 0.907519 0.041207 0.417984
vn 0.907519 0.041207 0.417984
vn 0.907519 0.041207 0.417984
vn 0.281320 0.223809 0.933150
vn 0.281320 0.223809 0.933150
vn 0.281320 0.223809 0.933150
vn 0.281320 0.223809 0.933150
vn -0.513361 0.391505 0.763665
vn -0.513361 0.391505 0.763665
vn -0.513361 0.391505 0.763665
vn -0.513361 0.391505 0.763665
vn -0.900688 0.434462 0.002192
vn -0.900688 0.434462 0.002192
vn -0.900688 0.434462 0.002192
vn -0.900688 0.434462 0.002192
vn -0.545440 0.324662 -0.772716
vn -0.545440 0.324662 -0.772716
vn -0.545440 0.324662 -0.772716
vn -0.545440 0.324662 -0.772716
vn 0.255497 0.134596 -0.957395
vn 0.255497 0.134596 -0.957395
vn 0.255497 0.134596 -0.957395
vn 0.255497 0.134596 -0.957395
vn -0.217504 -0.976044 0.005460
vn -0.220003 -0.975462 0.008479
vn -0.220758 -0.975318 0.004515
vn -0.223516 -0.974645 0.010359
vn -0.220684 -0.975267 0.012418
vn -0.223585 -0.974661 0.006693
vn -0.216169 -0.976319 0.008485
vn -0.217503 -0.975992 0.011472
s 1
g pCube2 polySurface3
usemtl lambert3SG
f 45/126/101 46/98/102 52/99/103
f 46/98/102 47/100/104 52/99/103
f 47/100/104 48/101/105 52/99/103
f 48/101/105 49/102/106 52/99/103
f 49/102/106 50/103/107 52/99/103
f 50/103/107 51/104/108 52/99/103
f 51/104/108 45/126/101 52/99/103
s off
f 54/128/109 53/127/110 45/97/111 51/125/112
f 55/108/113 54/105/114 51/107/115 50/109/116
f 56/110/117 55/108/118 50/109/119 49/111/120
f 57/112/121 56/110/122 49/111/123 48/113/124
f 58/114/125 57/112/126 48/113/127 47/115/128
f 59/116/129 58/114/130 47/115/131 46/117/132
f 53/127/133 59/116/134 46/117/135 45/97/136
s 2
f 53/106/137 60/119/138 59/120/139
f 57/121/140 60/119/138 56/122/141
f 58/123/142 60/119/138 57/121/140
f 59/120/139 60/119/138 58/123/142
f 54/118/143 60/119/138 53/106/137
f 54/118/143 55/124/144 60/119/138
f 60/119/138 55/124/144 56/122/141
g default
v 0.431421 5.740528 0.018586
v 1.209783 5.258407 0.013725
v 0.431421 5.740528 -0.017736
v 1.209783 5.258407 -0.012875
v 0.345879 5.413685 0.004965
v 1.090628 5.093191 0.003750
v 0.385965 5.566848 0.018586
v 0.385965 5.566848 -0.017736
v 1.183743 5.158911 -0.012875
v 1.183743 5.158911 0.013725
v 0.833475 5.548651 0.015934
v 0.833475 5.548651 -0.015084
v 0.793373 5.395431 -0.015084
v 0.710658 5.293608 0.004302
v 0.793373 5.395431 0.015934
v 0.431421 5.740528 0.000425
v 1.209783 5.258407 0.000425
v 0.833475 5.548651 0.000425
v 1.586924 4.674700 -0.009738
v 1.407070 5.001198 0.010161
v 1.408321 5.000626 0.000425
v 1.407070 5.001198 -0.009311
v 1.343368 4.901491 0.002859
v 1.376574 4.946174 0.010161
v 1.376574 4.946174 -0.009311
v 0.191690 5.803271 0.027687
v 0.143972 5.620948 0.027687
v 0.101240 5.457674 -0.006922
v 0.143972 5.620948 -0.027687
v 0.191690 5.803271 -0.027687
v 0.191690 5.803271 -0.000000
v -0.129102 5.493755 0.039554
v -0.179267 5.501447 0.050393
v -0.216482 5.508000 0.021075
v -0.216462 5.508278 -0.026346
v -0.179267 5.501447 -0.055663
v -0.129102 5.493755 -0.044825
v -0.108880 5.493901 -0.002635
v -0.102546 5.656175 -0.041360
v -0.102546 5.656175 0.042210
v -0.149554 5.666560 0.052761
v -0.185409 5.677613 0.023778
v -0.185409 5.677613 -0.022928
v -0.149554 5.666560 -0.051911
v -0.037659 5.854118 0.000133
v -0.056947 5.858830 0.041969
v -0.057572 5.858244 -0.041471
v -0.100911 5.868834 0.052533
v -0.136445 5.876592 0.023870
v -0.136791 5.876269 -0.022436
v -0.101689 5.868103 -0.051515
v -0.163658 5.499053 -0.002298
v -0.091462 5.866245 -0.000035
vt 0.591217 0.704358
vt 0.242580 0.338538
vt 0.665384 0.824279
vt 0.556050 0.739474
vt 0.286519 0.464604
vt 0.203871 0.353600
vt 0.246114 0.503809
vt 0.169594 0.389353
vt 0.628953 0.857837
vt 0.516056 0.779102
vt 0.109381 0.255852
vt 0.130287 0.231366
vt 0.165966 0.225893
vt 0.786091 0.900327
vt 0.761179 0.920722
vt 0.502454 0.683245
vt 0.539992 0.644549
vt 0.461313 0.725476
vt 0.341706 0.519298
vt 0.298703 0.559596
vt 0.871164 0.930891
vt 0.117412 0.137460
vt 0.857147 0.944952
vt 0.101529 0.145660
vt 0.087159 0.159357
vt 0.478976 0.576730
vt 0.490068 0.588744
vt 0.452333 0.623479
vt 0.441425 0.612651
vt 0.468565 0.565871
vt 0.429608 0.603988
vt 0.458367 0.555145
vt 0.420313 0.592988
vt 0.447854 0.544250
vt 0.411426 0.581260
vt 0.435870 0.533086
vt 0.400573 0.570361
vt 0.405722 0.668770
vt 0.395510 0.658503
vt 0.385108 0.647849
vt 0.374828 0.637050
vt 0.364734 0.626428
vt 0.354656 0.616080
vt 0.380633 0.482985
vt 0.879628 0.915442
vt 0.972500 0.963507
vt 0.792158 0.864990
vt 0.322520 0.429875
vt 0.681036 0.786108
vt 0.070841 0.043843
vt 0.052805 0.749194
vt 0.053674 0.610528
vt 0.058501 0.610529
vt 0.058458 0.749195
vt 0.054407 0.462603
vt 0.058547 0.462604
vt 0.062687 0.462606
vt 0.063329 0.610530
vt 0.064111 0.749197
vt 0.055539 0.361713
vt 0.058579 0.361354
vt 0.061618 0.361715
vt 0.061759 0.245637
vt 0.058567 0.826329
vt 0.049949 0.826326
vt 0.067185 0.826331
vt 0.058502 0.899451
vt 0.045478 0.905625
vt 0.071451 0.905784
vt 0.058549 0.916618
vt 0.065517 0.931070
vt 0.074573 0.919856
vt 0.042185 0.919658
vt 0.051103 0.930982
vt 0.116116 0.375183
vt 0.115936 0.443033
vt 0.102339 0.449085
vt 0.129245 0.449695
vt 0.132299 0.465916
vt 0.122697 0.477720
vt 0.115648 0.460514
vt 0.107613 0.477388
vt 0.098554 0.465152
vn -0.030542 -0.108754 0.993599
vn -0.387746 -0.921765 0.001632
vn -0.012781 -0.037392 0.999219
vn -0.003295 -0.048939 0.998796
vn 0.354589 0.935022 0.000000
vn 0.519212 0.854646 0.000000
vn 0.519518 0.854460 0.000000
vn 0.355762 0.934577 0.000000
vn 0.001173 -0.062061 -0.998072
vn -0.024628 -0.060761 -0.997849
vn -0.022763 -0.139676 -0.989936
vn 0.019456 -0.005092 -0.999798
vn 0.005531 -0.001448 -0.999984
vn 0.005531 -0.001448 0.999984
vn 0.018089 -0.004734 0.999825
vn 0.610736 0.791834 0.000000
vn 0.610736 0.791834 0.000000
vn 0.006048 -0.001780 -0.999980
vn -0.037449 -0.062979 -0.997312
vn -0.519182 -0.854657 0.003489
vn -0.019805 -0.039476 0.999024
vn 0.006048 -0.001780 0.999980
vn 0.610736 0.791834 0.000000
vn 0.519212 0.854645 0.000000
vn 0.354496 0.935058 0.000000
vn 0.001800 -0.073547 0.997290
vn -0.034250 -0.141821 0.989300
vn 0.035506 -0.009293 0.999326
vn 0.027924 -0.073206 -0.996926
vn 0.038816 -0.010159 -0.999195
vn 0.016163 -0.140218 -0.989989
vn -0.020893 -0.056262 0.998197
vn -0.062842 -0.092281 0.993748
vn -0.001266 -0.074080 0.997251
vn 0.792957 0.609278 0.000000
vn 0.792648 0.609040 0.027916
vn 0.818391 0.572966 0.044116
vn 0.825467 0.564451 0.000493
vn 0.020708 -0.009540 0.999740
vn -0.066336 -0.073358 -0.995097
vn -0.129892 -0.130980 -0.982839
vn 0.010062 -0.003640 -0.999943
vn 0.792648 0.609040 -0.027916
vn 0.818417 0.572902 -0.044472
vn 0.876956 0.480570 -0.000319
vn -0.089704 -0.067942 -0.993648
vn 0.253192 0.967416 0.000000
vn 0.253192 0.967416 0.000000
vn 0.253192 0.967416 0.000000
vn 0.205758 -0.050339 0.977307
vn 0.205758 -0.050339 0.977307
vn 0.210897 -0.049624 0.976248
vn 0.211013 -0.049607 0.976224
vn -0.606126 0.098115 0.789294
vn -0.606126 0.098115 0.789294
vn -0.602057 0.123059 0.788913
vn -0.601713 0.125063 0.788861
vn -0.983615 0.180283 0.000322
vn -0.983615 0.180283 0.000322
vn -0.977296 0.211870 0.001662
vn -0.977373 0.211518 0.001647
vn -0.599811 0.125919 -0.790171
vn -0.599811 0.125919 -0.790171
vn -0.601247 0.137882 -0.787077
vn -0.601125 0.136833 -0.787354
vn 0.212296 -0.014943 -0.977091
vn 0.212296 -0.014943 -0.977091
vn 0.211137 -0.032725 -0.976909
vn 0.211160 -0.032386 -0.976915
vn 0.215386 -0.048997 0.975299
vn 0.215386 -0.048997 0.975299
vn -0.598011 0.145738 0.788127
vn -0.598011 0.145738 0.788127
vn -0.971181 0.238328 0.002791
vn -0.971181 0.238328 0.002791
vn -0.602273 0.146940 -0.784650
vn -0.602273 0.146940 -0.784650
vn 0.210112 -0.047641 -0.976516
vn 0.210112 -0.047641 -0.976516
vn 0.055716 -0.012879 0.998364
vn 0.055716 -0.012879 0.998364
vn 0.055716 -0.012879 0.998364
vn 0.055716 -0.012879 0.998364
vn 0.217121 0.976127 -0.005929
vn 0.217121 0.976127 -0.005929
vn 0.216792 0.976204 -0.005163
vn 0.217739 0.975985 -0.006500
vn 0.215991 0.976388 -0.003895
vn 0.215991 0.976388 -0.003895
vn 0.216857 0.976191 -0.004907
vn 0.052926 -0.013051 -0.998513
vn 0.052926 -0.013051 -0.998513
vn 0.052926 -0.013051 -0.998513
vn 0.052926 -0.013051 -0.998513
vn 0.096410 -0.073240 -0.992643
vn 0.096410 -0.073240 -0.992643
vn 0.096410 -0.073240 -0.992643
vn 0.096410 -0.073240 -0.992643
vn -0.167649 -0.982280 0.083784
vn -0.167649 -0.982280 0.083784
vn -0.167649 -0.982280 0.083784
vn -0.170977 -0.981569 -0.085377
vn -0.170977 -0.981569 -0.085377
vn -0.170977 -0.981569 -0.085377
vn 0.105797 -0.135225 0.985150
vn 0.105797 -0.135225 0.985150
vn 0.105797 -0.135225 0.985150
vn 0.105797 -0.135225 0.985150
vn 0.219901 0.975485 -0.008490
vn -0.160873 -0.986971 -0.002814
vn -0.169415 -0.985529 -0.005625
vn -0.144480 -0.989508 -0.000593
vn -0.123193 -0.992096 -0.023866
vn -0.172250 -0.985053 0.000367
vn -0.163929 -0.986465 0.003697
vn -0.123222 -0.992102 0.023464
vn -0.093631 -0.995607 0.000263
vn 0.219900 0.975486 -0.008469
vn 0.219908 0.975484 -0.008480
vn 0.219892 0.975487 -0.008510
vn 0.219880 0.975490 -0.008488
s 1
g pCube2 polySurface1
usemtl blinn1SG
f 65/129/145 74/177/146 75/131/147 67/132/148
s 2
f 61/179/149 71/180/150 78/181/151 76/182/152
s 1
f 68/133/153 73/134/154 74/130/146 65/176/155
f 63/135/156 72/136/157 73/134/154 68/133/153
f 67/132/148 75/131/147 71/137/158 61/138/159
s 2
f 71/180/150 62/183/160 77/184/161 78/181/151
s 1
f 73/134/154 72/136/157 64/139/162 69/140/163
f 74/130/146 73/134/154 69/140/163 66/141/164
f 75/131/147 74/177/146 66/175/164 70/142/165
f 71/137/158 75/131/147 70/142/165 62/143/166
s 2
f 78/181/151 77/184/161 64/185/167 72/186/168
f 76/182/152 78/181/151 72/186/168 63/187/169
s 1
f 65/129/145 67/132/148 87/144/170 88/145/171
f 67/132/148 61/138/159 86/146/172 87/144/170
f 63/135/156 68/133/153 89/147/173 90/148/174
f 68/133/153 65/176/155 88/172/175 89/147/173
f 84/149/176 83/173/177 79/174/178
s 4
f 77/184/179 62/183/180 80/188/181 81/189/182
s 1
f 80/151/183 84/149/176 79/174/178
f 66/141/164 69/140/163 85/152/184 83/150/185
f 69/140/163 64/139/162 82/153/186 85/152/184
s 4
f 64/185/187 77/184/179 81/189/182 82/190/188
f 81/189/182 80/188/181 79/191/189
f 82/190/188 81/189/182 79/191/189
s 1
f 62/143/166 70/142/165 84/149/176 80/151/183
f 70/142/165 66/175/164 83/173/177 84/149/176
f 85/152/184 82/153/186 79/178/190
f 83/150/185 85/152/184 79/178/190
s 2
f 61/179/149 76/182/152 91/192/191 86/193/192
f 76/182/152 63/187/169 90/194/193 91/192/191
s 5
f 93/154/194 92/155/195 100/156/196 101/157/197
s 6
f 94/158/198 93/154/199 101/157/200 102/159/201
s 7
f 95/160/202 94/158/203 102/159/204 103/161/205
s 8
f 96/162/206 95/160/207 103/161/208 104/163/209
s 9
f 97/164/210 96/162/211 104/163/212 99/165/213
s 5
f 101/157/197 100/156/196 106/166/214 108/167/215
s 6
f 102/159/201 101/157/200 108/167/216 109/168/217
s 7
f 103/161/205 102/159/204 109/168/218 110/169/219
s 8
f 104/163/209 103/161/208 110/169/220 111/170/221
s 9
f 99/165/213 104/163/212 111/170/222 107/171/223
s off
f 87/144/224 86/146/225 106/166/226 100/156/227
s 10
f 86/193/228 91/192/229 105/195/230 106/196/231
f 91/192/232 90/194/233 107/197/234 105/195/230
s off
f 90/148/235 89/147/236 99/165/237 107/171/238
f 89/147/239 88/172/240 97/164/241 99/165/242
f 88/203/243 98/204/244 97/205/245
f 88/203/246 92/206/247 98/204/248
f 88/145/249 87/144/250 100/156/251 92/155/252
s 10
f 113/198/253 105/195/230 107/197/234
s 12
f 93/207/254 94/208/255 112/209/256
f 93/207/254 112/209/256 92/206/257
f 112/209/256 94/208/255 95/210/258
f 112/209/256 95/210/258 96/211/259
f 112/209/256 96/211/259 97/205/260
f 112/209/256 97/205/260 98/204/261
f 112/209/256 98/204/261 92/206/257
s 10
f 110/199/262 113/198/253 111/200/263
f 113/198/253 107/197/234 111/200/263
f 106/196/231 113/198/253 108/201/264
f 106/196/231 105/195/230 113/198/253
f 109/202/265 113/198/253 110/199/262
f 108/201/264 113/198/253 109/202/265
