# This file uses centimeters as units for non-parametric coordinates.

mtllib scytheTexture.mtl
g default
v -0.059323 5.909367 -0.025295
v -0.084018 5.917545 -0.031014
v -0.103821 5.924103 -0.014988
v -0.103821 5.924103 0.010716
v -0.084018 5.917545 0.026743
v -0.059323 5.909367 0.021023
v -0.048333 5.905727 -0.002136
v -0.076138 5.914935 -0.002136
v -0.063493 5.859654 -0.033676
v -0.047302 5.856298 0.000154
v -0.062985 5.860130 0.034173
v -0.098734 5.868264 0.042762
v -0.127628 5.874575 0.019456
v -0.127909 5.874311 -0.018197
v -0.099367 5.867670 -0.041843
v -0.091462 5.866075 0.000099
vt 0.391382 0.725386
vt 0.390084 0.773107
vt 0.398005 0.778094
vt 0.396958 0.768480
vt 0.404634 0.771052
vt 0.407333 0.778886
vt 0.403021 0.786083
vt 0.394947 0.787222
vt 0.446644 0.742767
vt 0.400461 0.734263
vt 0.432168 0.748550
vt 0.441500 0.732080
vt 0.428344 0.741348
vt 0.433904 0.722973
vt 0.422392 0.735436
vt 0.424236 0.716105
vt 0.415287 0.731173
vt 0.413256 0.711620
vt 0.407763 0.728184
vt 0.401599 0.709438
vt 0.399739 0.726120
vt 0.409259 0.742216
vt 0.395724 0.747473
vt 0.388536 0.736163
vt 0.386817 0.757459
vt 0.398317 0.760818
vt 0.382464 0.746486
vt 0.408305 0.754034
vt 0.383317 0.726591
vt 0.389189 0.781448
vt 0.389739 0.709537
vt 0.378116 0.711895
vn 0.314381 0.949297 0.000043
vn 0.314378 0.949298 0.000030
vn 0.314378 0.949298 0.000000
vn 0.314376 0.949299 0.000010
vn 0.314376 0.949299 -0.000019
vn 0.314378 0.949298 -0.000041
vn 0.314381 0.949297 -0.000032
vn 0.314379 0.949298 0.000011
vn 0.902487 -0.002114 -0.430711
vn 0.902487 -0.002114 -0.430711
vn 0.902487 -0.002114 -0.430711
vn 0.902487 -0.002114 -0.430711
vn 0.907519 0.041207 0.417984
vn 0.907519 0.041207 0.417984
vn 0.907519 0.041207 0.417984
vn 0.907519 0.041207 0.417984
vn 0.281320 0.223809 0.933150
vn 0.281320 0.223809 0.933150
vn 0.281320 0.223809 0.933150
vn 0.281320 0.223809 0.933150
vn -0.513361 0.391505 0.763665
vn -0.513361 0.391505 0.763665
vn -0.513361 0.391505 0.763665
vn -0.513361 0.391505 0.763665
vn -0.900688 0.434462 0.002192
vn -0.900688 0.434462 0.002192
vn -0.900688 0.434462 0.002192
vn -0.900688 0.434462 0.002192
vn -0.545440 0.324662 -0.772716
vn -0.545440 0.324662 -0.772716
vn -0.545440 0.324662 -0.772716
vn -0.545440 0.324662 -0.772716
vn 0.255497 0.134596 -0.957395
vn 0.255497 0.134596 -0.957395
vn 0.255497 0.134596 -0.957395
vn 0.255497 0.134596 -0.957395
vn -0.217504 -0.976044 0.005460
vn -0.220003 -0.975462 0.008479
vn -0.220758 -0.975318 0.004515
vn -0.223516 -0.974645 0.010359
vn -0.220684 -0.975267 0.012418
vn -0.223585 -0.974661 0.006693
vn -0.216169 -0.976319 0.008485
vn -0.217503 -0.975992 0.011472
s 1
g polySurface3 pCube2
usemtl lambert3SG
f 1/30/1 2/2/2 8/3/3
f 2/2/2 3/4/4 8/3/3
f 3/4/4 4/5/5 8/3/3
f 4/5/5 5/6/6 8/3/3
f 5/6/6 6/7/7 8/3/3
f 6/7/7 7/8/8 8/3/3
f 7/8/8 1/30/1 8/3/3
s off
f 10/32/9 9/31/10 1/1/11 7/29/12
f 11/12/13 10/9/14 7/11/15 6/13/16
f 12/14/17 11/12/18 6/13/19 5/15/20
f 13/16/21 12/14/22 5/15/23 4/17/24
f 14/18/25 13/16/26 4/17/27 3/19/28
f 15/20/29 14/18/30 3/19/31 2/21/32
f 9/31/33 15/20/34 2/21/35 1/1/36
s 2
f 9/10/37 16/23/38 15/24/39
f 13/25/40 16/23/38 12/26/41
f 14/27/42 16/23/38 13/25/40
f 15/24/39 16/23/38 14/27/42
f 10/22/43 16/23/38 9/10/37
f 10/22/43 11/28/44 16/23/38
f 16/23/38 11/28/44 12/26/41
g default
v 0.431421 5.740528 0.018586
v 1.209783 5.258407 0.013725
v 0.431421 5.740528 -0.017736
v 1.209783 5.258407 -0.012875
v 0.345879 5.413685 0.004965
v 1.090628 5.093191 0.003750
v 0.385965 5.566848 0.018586
v 0.385965 5.566848 -0.017736
v 1.183743 5.158911 -0.012875
v 1.183743 5.158911 0.013725
v 0.833475 5.548651 0.015934
v 0.833475 5.548651 -0.015084
v 0.793373 5.395431 -0.015084
v 0.710658 5.293608 0.004302
v 0.793373 5.395431 0.015934
v 0.431421 5.740528 0.000425
v 1.209783 5.258407 0.000425
v 0.833475 5.548651 0.000425
v 1.586924 4.674700 -0.009738
v 1.407070 5.001198 0.010161
v 1.408321 5.000626 0.000425
v 1.407070 5.001198 -0.009311
v 1.343368 4.901491 0.002859
v 1.376574 4.946174 0.010161
v 1.376574 4.946174 -0.009311
v 0.191690 5.803271 0.027687
v 0.143972 5.620948 0.027687
v 0.101240 5.457674 -0.006922
v 0.143972 5.620948 -0.027687
v 0.191690 5.803271 -0.027687
v 0.191690 5.803271 -0.000000
v -0.129102 5.493755 0.039554
v -0.179267 5.501447 0.050393
v -0.216482 5.508000 0.021075
v -0.216462 5.508278 -0.026346
v -0.179267 5.501447 -0.055663
v -0.129102 5.493755 -0.044825
v -0.108880 5.493901 -0.002635
v -0.102546 5.656175 -0.041360
v -0.102546 5.656175 0.042210
v -0.149554 5.666560 0.052761
v -0.185409 5.677613 0.023778
v -0.185409 5.677613 -0.022928
v -0.149554 5.666560 -0.051911
v -0.037659 5.854118 0.000133
v -0.056947 5.858830 0.041969
v -0.057572 5.858244 -0.041471
v -0.100911 5.868834 0.052533
v -0.136445 5.876592 0.023870
v -0.136791 5.876269 -0.022436
v -0.101689 5.868103 -0.051515
v -0.163658 5.499053 -0.002298
v -0.091462 5.866245 -0.000035
vt 0.811954 0.131703
vt 0.691063 0.253094
vt 0.665384 0.824279
vt 0.556050 0.739474
vt 0.744633 0.130810
vt 0.729679 0.268393
vt 0.246114 0.503809
vt 0.169594 0.389353
vt 0.628953 0.857837
vt 0.516056 0.779102
vt 0.109381 0.255852
vt 0.130287 0.231366
vt 0.670570 0.387775
vt 0.805753 0.408002
vt 0.761179 0.920722
vt 0.502454 0.683245
vt 0.539992 0.644549
vt 0.461313 0.725476
vt 0.341706 0.519298
vt 0.298703 0.559596
vt 0.842684 0.490511
vt 0.645987 0.485619
vt 0.857147 0.944952
vt 0.663206 0.490416
vt 0.087159 0.159357
vt 0.478976 0.576730
vt 0.490068 0.588744
vt 0.452333 0.623479
vt 0.441425 0.612651
vt 0.468565 0.565871
vt 0.429608 0.603988
vt 0.458367 0.555145
vt 0.420313 0.592988
vt 0.447854 0.544250
vt 0.411426 0.581260
vt 0.435870 0.533086
vt 0.400573 0.570361
vt 0.405722 0.668770
vt 0.395510 0.658503
vt 0.385108 0.647849
vt 0.374828 0.637050
vt 0.364734 0.626428
vt 0.354656 0.616080
vt 0.688166 0.053307
vt 0.859687 0.485905
vt 0.889408 0.586165
vt 0.835431 0.387884
vt 0.694620 0.131768
vt 0.815275 0.253109
vt 0.616423 0.585914
vt 0.052805 0.749194
vt 0.053674 0.610528
vt 0.058501 0.610529
vt 0.058458 0.749195
vt 0.054407 0.462603
vt 0.058547 0.462604
vt 0.062687 0.462606
vt 0.063329 0.610530
vt 0.064111 0.749197
vt 0.055539 0.361713
vt 0.058579 0.361354
vt 0.061618 0.361715
vt 0.061759 0.245637
vt 0.058567 0.826329
vt 0.049949 0.826326
vt 0.067185 0.826331
vt 0.058502 0.899451
vt 0.045478 0.905625
vt 0.071451 0.905784
vt 0.058549 0.916618
vt 0.065517 0.931070
vt 0.074573 0.919856
vt 0.042185 0.919658
vt 0.051103 0.930982
vt 0.116116 0.375183
vt 0.115936 0.443033
vt 0.102339 0.449085
vt 0.129245 0.449695
vt 0.132299 0.465916
vt 0.122697 0.477720
vt 0.115648 0.460514
vt 0.107613 0.477388
vt 0.098554 0.465152
vt 0.819563 0.053324
vt 0.380633 0.482985
vt 0.741400 0.053179
vt 0.765651 0.053085
vt 0.101529 0.145660
vt 0.972500 0.963507
vt 0.070841 0.043843
vt 0.871164 0.930891
vt 0.700442 0.408039
vt 0.786091 0.900327
vt 0.286519 0.464604
vt 0.762266 0.130691
vt 0.776912 0.268283
vt 0.203871 0.353600
vn -0.030542 -0.108754 0.993599
vn -0.387746 -0.921765 0.001632
vn -0.012781 -0.037392 0.999219
vn -0.003295 -0.048939 0.998796
vn 0.354589 0.935022 0.000000
vn 0.519212 0.854646 0.000000
vn 0.519518 0.854460 0.000000
vn 0.355762 0.934577 0.000000
vn 0.001173 -0.062061 -0.998072
vn -0.024628 -0.060761 -0.997849
vn -0.022763 -0.139676 -0.989936
vn 0.019456 -0.005092 -0.999798
vn 0.005531 -0.001448 -0.999984
vn 0.005531 -0.001448 0.999984
vn 0.018089 -0.004734 0.999825
vn 0.610736 0.791834 0.000000
vn 0.610736 0.791834 0.000000
vn 0.006048 -0.001780 -0.999980
vn -0.037449 -0.062979 -0.997312
vn -0.519182 -0.854657 0.003489
vn -0.019805 -0.039476 0.999024
vn 0.006048 -0.001780 0.999980
vn 0.610736 0.791834 0.000000
vn 0.519212 0.854645 0.000000
vn 0.354496 0.935058 0.000000
vn 0.001800 -0.073547 0.997290
vn -0.034250 -0.141821 0.989300
vn 0.035506 -0.009293 0.999326
vn 0.027924 -0.073206 -0.996926
vn 0.038816 -0.010159 -0.999195
vn 0.016163 -0.140218 -0.989989
vn -0.020893 -0.056262 0.998197
vn -0.062842 -0.092282 0.993748
vn -0.001266 -0.074080 0.997252
vn 0.792957 0.609278 0.000000
vn 0.792648 0.609040 0.027916
vn 0.818391 0.572966 0.044116
vn 0.825467 0.564450 0.000493
vn 0.020708 -0.009541 0.999740
vn -0.066336 -0.073357 -0.995097
vn -0.129893 -0.130981 -0.982839
vn 0.010062 -0.003640 -0.999943
vn 0.792648 0.609040 -0.027916
vn 0.818417 0.572902 -0.044472
vn 0.876957 0.480570 -0.000319
vn -0.089703 -0.067942 -0.993648
vn 0.253192 0.967416 0.000000
vn 0.253192 0.967416 0.000000
vn 0.253192 0.967416 0.000000
vn 0.205758 -0.050339 0.977307
vn 0.205758 -0.050339 0.977307
vn 0.210897 -0.049624 0.976248
vn 0.211013 -0.049607 0.976224
vn -0.606126 0.098115 0.789294
vn -0.606126 0.098115 0.789294
vn -0.602057 0.123059 0.788913
vn -0.601713 0.125063 0.788861
vn -0.983615 0.180283 0.000322
vn -0.983615 0.180283 0.000322
vn -0.977296 0.211870 0.001662
vn -0.977373 0.211518 0.001647
vn -0.599811 0.125919 -0.790171
vn -0.599811 0.125919 -0.790171
vn -0.601247 0.137882 -0.787077
vn -0.601125 0.136833 -0.787354
vn 0.212296 -0.014943 -0.977091
vn 0.212296 -0.014943 -0.977091
vn 0.211137 -0.032725 -0.976909
vn 0.211160 -0.032386 -0.976915
vn 0.215386 -0.048997 0.975299
vn 0.215386 -0.048997 0.975299
vn -0.598011 0.145738 0.788127
vn -0.598011 0.145738 0.788127
vn -0.971181 0.238328 0.002791
vn -0.971181 0.238328 0.002791
vn -0.602273 0.146940 -0.784650
vn -0.602273 0.146940 -0.784650
vn 0.210112 -0.047641 -0.976516
vn 0.210112 -0.047641 -0.976516
vn 0.055716 -0.012879 0.998364
vn 0.055716 -0.012879 0.998364
vn 0.055716 -0.012879 0.998364
vn 0.055716 -0.012879 0.998364
vn 0.217121 0.976127 -0.005929
vn 0.217121 0.976127 -0.005929
vn 0.216792 0.976204 -0.005163
vn 0.217739 0.975985 -0.006500
vn 0.215991 0.976388 -0.003895
vn 0.215991 0.976388 -0.003895
vn 0.216857 0.976191 -0.004907
vn 0.052926 -0.013051 -0.998513
vn 0.052926 -0.013051 -0.998513
vn 0.052926 -0.013051 -0.998513
vn 0.052926 -0.013051 -0.998513
vn 0.096410 -0.073240 -0.992643
vn 0.096410 -0.073240 -0.992643
vn 0.096410 -0.073240 -0.992643
vn 0.096410 -0.073240 -0.992643
vn -0.167649 -0.982280 0.083784
vn -0.167649 -0.982280 0.083784
vn -0.167649 -0.982280 0.083784
vn -0.170977 -0.981569 -0.085377
vn -0.170977 -0.981569 -0.085377
vn -0.170977 -0.981569 -0.085377
vn 0.105797 -0.135225 0.985150
vn 0.105797 -0.135225 0.985150
vn 0.105797 -0.135225 0.985150
vn 0.105797 -0.135225 0.985150
vn 0.219901 0.975485 -0.008490
vn -0.160873 -0.986971 -0.002814
vn -0.169415 -0.985529 -0.005625
vn -0.144480 -0.989508 -0.000593
vn -0.123193 -0.992096 -0.023866
vn -0.172250 -0.985053 0.000367
vn -0.163929 -0.986465 0.003697
vn -0.123222 -0.992102 0.023464
vn -0.093631 -0.995607 0.000263
vn 0.219900 0.975486 -0.008469
vn 0.219908 0.975484 -0.008480
vn 0.219892 0.975487 -0.008510
vn 0.219880 0.975490 -0.008488
s 1
g pCube2 polySurface1
usemtl blinn2SG
f 21/33/45 30/81/46 31/128/47 23/127/48
s 2
usemtl blinn1SG
f 17/83/49 27/84/50 34/85/51 32/86/52
s 1
usemtl blinn2SG
f 24/37/53 29/38/54 30/34/46 21/80/55
usemtl blinn1SG
f 19/39/56 28/40/57 29/129/54 24/126/53
f 23/36/48 31/35/47 27/41/58 17/42/59
s 2
f 27/84/50 18/87/60 33/88/61 34/85/51
s 1
f 29/129/54 28/40/57 20/43/62 25/44/63
usemtl blinn2SG
f 30/34/46 29/38/54 25/124/63 22/45/64
f 31/128/47 30/81/46 22/79/64 26/46/65
usemtl blinn1SG
f 27/41/58 31/35/47 26/125/65 18/47/66
s 2
f 34/85/51 33/88/61 20/89/67 28/90/68
f 32/86/52 34/85/51 28/90/68 19/91/69
s 1
usemtl blinn2SG
f 21/33/45 23/127/48 43/119/70 44/116/71
usemtl blinn1SG
f 23/36/48 17/42/59 42/50/72 43/48/70
f 19/39/56 24/126/53 45/51/73 46/52/74
usemtl blinn2SG
f 24/37/53 21/80/55 44/76/75 45/118/73
f 40/53/76 39/77/77 35/78/78
s 4
usemtl blinn1SG
f 33/88/79 18/87/80 36/92/81 37/93/82
s 1
f 36/55/83 40/123/76 35/121/78
usemtl blinn2SG
f 22/45/64 25/124/63 41/56/84 39/54/85
usemtl blinn1SG
f 25/44/63 20/43/62 38/57/86 41/120/84
s 4
f 20/89/87 33/88/79 37/93/82 38/94/88
f 37/93/82 36/92/81 35/95/89
f 38/94/88 37/93/82 35/95/89
s 1
f 18/47/66 26/125/65 40/123/76 36/55/83
usemtl blinn2SG
f 26/46/65 22/79/64 39/77/77 40/53/76
usemtl blinn1SG
f 41/120/84 38/57/86 35/122/90
usemtl blinn2SG
f 39/54/85 41/56/84 35/82/90
s 2
usemtl blinn1SG
f 17/83/49 32/86/52 47/96/91 42/97/92
f 32/86/52 19/91/69 46/98/93 47/96/91
s 5
f 49/58/94 48/59/95 56/60/96 57/61/97
s 6
f 50/62/98 49/58/99 57/61/100 58/63/101
s 7
f 51/64/102 50/62/103 58/63/104 59/65/105
s 8
f 52/66/106 51/64/107 59/65/108 60/67/109
s 9
f 53/68/110 52/66/111 60/67/112 55/69/113
s 5
f 57/61/97 56/60/96 62/70/114 64/71/115
s 6
f 58/63/101 57/61/100 64/71/116 65/72/117
s 7
f 59/65/105 58/63/104 65/72/118 66/73/119
s 8
f 60/67/109 59/65/108 66/73/120 67/74/121
s 9
f 55/69/113 60/67/112 67/74/122 63/75/123
s off
f 43/48/124 42/50/125 62/70/126 56/60/127
s 10
f 42/97/128 47/96/129 61/99/130 62/100/131
f 47/96/132 46/98/133 63/101/134 61/99/130
s off
f 46/52/135 45/51/136 55/69/137 63/75/138
f 45/51/139 44/117/140 53/68/141 55/69/142
f 44/107/143 54/108/144 53/109/145
f 44/107/146 48/110/147 54/108/148
f 44/49/149 43/48/150 56/60/151 48/59/152
s 10
f 69/102/153 61/99/130 63/101/134
s 12
f 49/111/154 50/112/155 68/113/156
f 49/111/154 68/113/156 48/110/157
f 68/113/156 50/112/155 51/114/158
f 68/113/156 51/114/158 52/115/159
f 68/113/156 52/115/159 53/109/160
f 68/113/156 53/109/160 54/108/161
f 68/113/156 54/108/161 48/110/157
s 10
f 66/103/162 69/102/153 67/104/163
f 69/102/153 63/101/134 67/104/163
f 62/100/131 69/102/153 64/105/164
f 62/100/131 61/99/130 69/102/153
f 65/106/165 69/102/153 66/103/162
f 64/105/164 69/102/153 65/106/165
g default
v -0.051292 1.213220 -0.070643
v -0.120998 1.260679 -0.088091
v -0.176897 1.298737 -0.039204
v -0.176897 1.298737 0.039204
v -0.120998 1.260679 0.088091
v -0.051292 1.213220 0.070643
v -0.020270 1.192100 0.000000
v -0.102663 1.248196 0.000000
v 0.091792 2.402458 0.051704
v 0.055812 2.402458 0.023010
v 0.055812 2.402458 -0.023010
v 0.091792 2.402458 -0.051704
v 0.136659 2.402458 -0.041463
v 0.156627 2.402458 -0.000000
v 0.136659 2.402458 0.041463
v -0.008661 3.704838 0.048621
v -0.042496 3.704838 0.021638
v -0.042496 3.704838 -0.021638
v -0.008661 3.704838 -0.048621
v 0.033531 3.704838 -0.038991
v 0.052308 3.704838 0.000000
v 0.033531 3.704838 0.038991
v -0.183952 4.754469 0.043512
v -0.217842 4.737748 0.019365
v -0.217842 4.737748 -0.019365
v -0.183952 4.754469 -0.043512
v -0.141692 4.775320 -0.034894
v -0.122885 4.784600 0.000000
v -0.141692 4.775320 0.034894
v -0.161187 5.323595 0.033284
v -0.203384 5.324015 0.042005
v -0.233662 5.330551 0.018826
v -0.233662 5.330551 -0.018826
v -0.203384 5.324015 -0.042005
v -0.161187 5.323595 -0.033284
v -0.140069 5.327482 0.000000
v -0.135317 5.494904 0.031885
v -0.176328 5.501192 0.040746
v -0.118786 5.495024 -0.002605
v -0.135317 5.494904 -0.037095
v -0.176328 5.501192 -0.045956
v -0.206735 5.506776 -0.021988
v -0.206752 5.506550 0.016778
v -0.163490 5.499354 -0.002360
vt 0.287598 0.017986
vt 0.311050 0.026479
vt 0.327833 0.362626
vt 0.157767 0.518916
vt 0.236843 0.291460
vt 0.340961 0.360321
vt 0.259553 0.291312
vt 0.354291 0.360233
vt 0.379828 0.026028
vt 0.367448 0.362367
vt 0.403166 0.017229
vt 0.380447 0.365320
vt 0.426183 0.014580
vt 0.144442 0.518584
vt 0.264548 0.015639
vt 0.393617 0.367375
vt 0.197703 0.520552
vt 0.211008 0.519742
vt 0.210707 0.898087
vt 0.198195 0.898849
vt 0.184373 0.520583
vt 0.185660 0.898878
vt 0.171065 0.519836
vt 0.173145 0.898175
vt 0.160640 0.897311
vt 0.237625 0.518365
vt 0.148109 0.896998
vt 0.224301 0.518760
vt 0.223207 0.897163
vt 0.235737 0.896792
vt 0.314874 0.365749
vt 0.301732 0.367977
vt 0.437381 0.979522
vt 0.424552 0.974907
vt 0.423245 0.801662
vt 0.186474 0.976271
vt 0.449154 0.979337
vt 0.197919 0.976093
vt 0.461834 0.974330
vt 0.457785 0.801128
vt 0.475006 0.968117
vt 0.470883 0.801380
vt 0.399088 0.966531
vt 0.482856 0.800099
vt 0.411194 0.969103
vt 0.410161 0.802319
vt 0.398154 0.801409
vt 0.487027 0.965171
vt 0.316019 0.650921
vt 0.329036 0.649009
vt 0.333519 0.972496
vt 0.302864 0.651124
vt 0.289794 0.649614
vt 0.295295 0.973086
vt 0.276773 0.647737
vt 0.281407 0.977472
vt 0.355104 0.645633
vt 0.269206 0.979545
vt 0.341994 0.646730
vt 0.347535 0.976451
vt 0.359795 0.978147
vt 0.263634 0.647044
vt 0.320242 0.969400
vt 0.308470 0.969579
vt 0.174733 0.976970
vt 0.161750 0.975225
vt 0.276048 0.596611
vt 0.273636 0.609281
vt 0.281126 0.618512
vt 0.292909 0.618263
vt 0.209671 0.976571
vt 0.299996 0.608714
vt 0.222662 0.974883
vt 0.297041 0.596159
vt 0.149902 0.973076
vt 0.286437 0.591390
vt 0.286767 0.605060
vt 0.174382 0.922482
vt 0.209937 0.922070
vt 0.222834 0.922200
vt 0.234450 0.921668
vt 0.149886 0.921726
vt 0.161484 0.922554
vt 0.234558 0.973017
vt 0.434758 0.799256
vt 0.446203 0.799081
vt 0.186263 0.922139
vt 0.198046 0.921890
vt 0.222565 0.273341
vt 0.227470 0.250598
vt 0.248040 0.267201
vt 0.273593 0.273007
vt 0.268391 0.250330
vt 0.247864 0.240358
vt 0.334132 0.033646
vt 0.356842 0.033498
vn 0.230112 -0.012189 -0.973088
vn 0.230112 -0.012189 -0.973088
vn 0.226893 0.001283 -0.973919
vn 0.226664 0.002235 -0.973970
vn -0.604858 0.138365 -0.784221
vn -0.604858 0.138365 -0.784221
vn -0.615302 0.058116 -0.786146
vn -0.615765 0.053632 -0.786102
vn -0.978488 0.206304 0.000000
vn -0.978488 0.206304 0.000000
vn -0.996796 0.079989 0.000000
vn -0.996796 0.079989 0.000000
vn -0.604858 0.138365 0.784221
vn -0.604858 0.138365 0.784221
vn -0.615766 0.053632 0.786102
vn -0.615302 0.058116 0.786146
vn 0.230112 -0.012189 0.973088
vn 0.230112 -0.012189 0.973088
vn 0.226664 0.002235 0.973970
vn 0.226893 0.001283 0.973919
vn 0.892982 -0.130536 0.430747
vn 0.892982 -0.130536 0.430747
vn 0.900034 -0.041574 0.433832
vn 0.899927 -0.044246 0.433790
vn 0.892982 -0.130536 -0.430747
vn 0.892982 -0.130536 -0.430747
vn 0.899927 -0.044246 -0.433790
vn 0.900034 -0.041574 -0.433832
vn -0.562785 -0.826603 0.000000
vn -0.562785 -0.826603 0.000003
vn -0.562785 -0.826603 -0.000000
vn -0.562784 -0.826604 0.000000
vn -0.562784 -0.826604 0.000000
vn -0.562786 -0.826603 0.000000
vn -0.562786 -0.826603 -0.000003
vn -0.562784 -0.826604 -0.000001
vn -0.607562 -0.066393 0.791493
vn -0.605260 -0.069384 0.792998
vn -0.993434 -0.114408 0.000000
vn -0.993434 -0.114408 0.000000
vn -0.605260 -0.069384 -0.792998
vn -0.607562 -0.066393 -0.791493
vn 0.212616 0.028324 -0.976725
vn 0.214115 0.026980 -0.976436
vn 0.888509 0.104447 -0.446813
vn 0.889261 0.102165 -0.445843
vn 0.889262 0.102165 0.445843
vn 0.888510 0.104447 0.446813
vn 0.214115 0.026980 0.976436
vn 0.212616 0.028324 0.976725
vn -0.588124 -0.062039 0.806388
vn -0.586802 -0.075539 0.806200
vn -0.992879 -0.119130 0.000000
vn -0.992879 -0.119130 0.000000
vn -0.586801 -0.075539 -0.806200
vn -0.588124 -0.062039 -0.806388
vn 0.201380 0.030941 -0.979024
vn 0.200720 0.025288 -0.979322
vn 0.872027 0.112623 -0.476324
vn 0.870765 0.100983 -0.481218
vn 0.870765 0.100983 0.481217
vn 0.872027 0.112623 0.476324
vn 0.200720 0.025288 0.979322
vn 0.201380 0.030941 0.979024
vn -0.593748 0.007008 0.804621
vn -0.594235 0.013536 0.804178
vn -0.999899 0.014197 0.000053
vn -0.999891 0.014786 0.000054
vn -0.594984 0.007407 -0.803704
vn -0.594360 0.002535 -0.804195
vn 0.199726 -0.004340 -0.979842
vn 0.199804 -0.005628 -0.979820
vn 0.863994 -0.003420 -0.503491
vn 0.864868 -0.012088 -0.501854
vn 0.864844 -0.008630 0.501966
vn 0.863865 0.000096 0.503723
vn 0.200360 0.001452 0.979721
vn 0.200227 0.002188 0.979747
vn 0.204861 -0.023649 0.978505
vn 0.204861 -0.023649 0.978505
vn -0.598245 0.098861 0.795192
vn -0.598244 0.098861 0.795192
vn -0.988519 0.151099 0.000232
vn -0.988519 0.151099 0.000232
vn -0.602225 0.075998 -0.794701
vn -0.602225 0.075998 -0.794701
vn 0.202403 -0.052520 -0.977893
vn 0.202403 -0.052520 -0.977893
vn 0.869989 -0.130069 -0.475607
vn 0.869989 -0.130069 -0.475607
vn 0.871196 -0.115593 0.477132
vn 0.871196 -0.115593 0.477133
vn 0.166991 0.985935 0.006780
vn 0.144509 0.989503 0.000597
vn 0.169822 0.985474 -0.001509
vn 0.163286 0.986558 -0.006485
vn 0.124950 0.991829 -0.025726
vn 0.160229 0.987064 0.005612
vn 0.124945 0.991821 0.026097
vn 0.096409 0.995342 -0.000240
s 1
g pCube2 polySurface2
usemtl lambert2SG
f 70/130/166 71/131/167 81/132/168 82/160/169
s 2
f 71/131/170 72/224/171 80/135/172 81/132/173
s 3
f 72/224/174 73/225/175 79/137/176 80/135/177
s 4
f 73/225/178 74/138/179 78/139/180 79/137/181
s 5
f 74/138/182 75/140/183 84/141/184 78/139/185
s 6
f 75/140/186 76/142/187 83/145/188 84/141/189
s 7
f 76/144/190 70/130/191 82/160/192 83/161/193
s 8
f 71/218/194 70/219/195 77/220/196
f 72/134/197 71/218/194 77/220/196
f 73/136/198 72/134/197 77/220/196
f 74/221/199 73/136/198 77/220/196
f 75/222/200 74/221/199 77/220/196
f 76/223/201 75/222/200 77/220/196
f 70/219/195 76/223/201 77/220/196
s 4
f 79/146/181 78/147/180 85/148/202 86/149/203
s 3
f 80/150/177 79/146/176 86/149/204 87/151/205
s 2
f 81/152/173 80/150/172 87/151/206 88/153/207
s 1
f 82/133/169 81/152/168 88/153/208 89/154/209
s 7
f 83/143/193 82/133/192 89/154/210 90/156/211
s 6
f 84/157/189 83/155/188 90/159/212 91/158/213
s 5
f 78/147/185 84/157/184 91/158/214 85/148/215
s 4
f 86/178/203 85/179/202 92/180/216 93/192/217
s 3
f 87/181/205 86/178/204 93/192/218 94/193/219
s 2
f 88/182/207 87/181/206 94/193/220 95/183/221
s 1
f 89/184/209 88/182/208 95/183/222 96/185/223
s 7
f 90/191/211 89/184/210 96/185/224 97/187/225
s 6
f 91/188/213 90/186/212 97/190/226 98/189/227
s 5
f 85/179/215 91/188/214 98/189/228 92/180/229
s 4
f 93/162/217 92/163/216 100/164/230 101/214/231
s 3
f 94/166/219 93/162/218 101/214/232 102/215/233
s 2
f 95/168/221 94/166/220 102/215/234 103/169/235
s 1
f 96/170/223 95/168/222 103/169/236 104/171/237
s 7
f 97/177/225 96/170/224 104/171/238 105/173/239
s 6
f 98/174/227 97/172/226 105/176/240 99/175/241
s 5
f 92/163/229 98/174/228 99/175/242 100/164/243
f 100/194/243 99/195/242 106/212/244 107/207/245
s 4
f 101/165/231 100/194/230 107/207/246 112/216/247
s 3
f 102/167/233 101/165/232 112/216/248 111/217/249
s 2
f 103/200/235 102/167/234 111/217/250 110/208/251
s 1
f 104/202/237 103/200/236 110/208/252 109/209/253
s 7
f 105/213/239 104/202/238 109/209/254 108/210/255
s 6
f 99/195/241 105/204/240 108/211/256 106/212/257
s 9
f 112/198/258 113/206/259 111/199/260
f 111/199/260 113/206/259 110/201/261
f 113/206/259 109/203/262 110/201/261
f 107/197/263 113/206/259 112/198/258
f 107/197/263 106/196/264 113/206/259
f 113/206/259 106/196/264 108/205/265
f 113/206/259 108/205/265 109/203/262
